<svg id="Layer_1" data-name="Layer 1" xmlns="http://www.w3.org/2000/svg" viewBox="0 0 237.79 195.99"><defs><style>.cls-1{fill:#fff;}.cls-2{fill:#0066b3;}.cls-2,.cls-3,.cls-4{fill-rule:evenodd;}.cls-3{fill:#2361a4;}.cls-4{fill:#f58220;}</style></defs><rect class="cls-1" width="237.79" height="195.99"/><path class="cls-2" d="M171.83,140.42,169.07,130a42.92,42.92,0,0,0,9.78,5,28.64,28.64,0,0,0,9.39,1.65q6,0,9.56-2.56a7.83,7.83,0,0,0,3.25-8.94,8.61,8.61,0,0,0-1.1-2.21q-1.57-2.36-10.59-6.77c-1.52-.71-2.7-1.28-3.54-1.7q-8.41-4.24-11.57-7.8a12.49,12.49,0,0,1-3.14-8.48A13.08,13.08,0,0,1,176.85,87q5.73-4.12,15.71-4.13a61.71,61.71,0,0,1,6.33.37c2.29.26,4.79.64,7.48,1.16v9.69a28,28,0,0,0-7.2-4,21.53,21.53,0,0,0-7.51-1.33,13.72,13.72,0,0,0-8,2.11,6.51,6.51,0,0,0-3,5.53,7.3,7.3,0,0,0,2.38,5.36q2.35,2.33,10.63,6.23l1.42.66a54.91,54.91,0,0,1,10.43,5.9,14.06,14.06,0,0,1,4,4.87,13.5,13.5,0,0,1,1.43,6.09c0,5-2.27,9.16-6.82,12.61s-10.21,5.18-17,5.18a39.73,39.73,0,0,1-7.07-.71,69.49,69.49,0,0,1-8.22-2.12"/><path class="cls-3" d="M156.87,130.83l-17.7-17.45a27.83,27.83,0,0,0-6.3,6.73,12.65,12.65,0,0,0-2,6.74,11.35,11.35,0,0,0,3.44,8.44,11.69,11.69,0,0,0,8.56,3.4,15,15,0,0,0,7.48-1.91,22.37,22.37,0,0,0,6.51-5.95"/><path class="cls-3" d="M140.69,103.05a15.4,15.4,0,0,0,4.43-4.21,8.35,8.35,0,0,0,1.48-4.72A5.4,5.4,0,0,0,144.87,90a6.25,6.25,0,0,0-4.45-1.62,5.59,5.59,0,0,0-4.1,1.62,5.41,5.41,0,0,0-1.64,4A7.36,7.36,0,0,0,136.11,98a30,30,0,0,0,4.58,5.09"/><path class="cls-3" d="M165.32,138.63v3.87H152.25a29.52,29.52,0,0,0,8.85-7.62,49.16,49.16,0,0,0,4.22,3.75"/><path class="cls-2" d="M165.32,26.38V127L146,108.45a29.35,29.35,0,0,0,6-6.94,13,13,0,0,0,2-6.7,11.13,11.13,0,0,0-3.72-8.45,12.76,12.76,0,0,0-9-3.48,15.78,15.78,0,0,0-10.42,3.45,10.71,10.71,0,0,0-4.18,8.57,12.76,12.76,0,0,0,1.72,5.95,35.84,35.84,0,0,0,5.2,7.05A46.36,46.36,0,0,0,124.05,118a17.43,17.43,0,0,0-2.93,9.47,16.52,16.52,0,0,0,5.63,12.76,19.77,19.77,0,0,0,3.08,2.28H110.55L114.94,132a54.67,54.67,0,0,1-10.26,4.69,29.28,29.28,0,0,1-8.92,1.53q-10.23,0-16.53-6.93T73,113q0-10.29,6.08-16.5c4-4.14,9.42-6.22,16.13-6.22a25.63,25.63,0,0,1,7.07,1,39.37,39.37,0,0,1,7.7,3.2V84.92a55.89,55.89,0,0,0-7.44-1.78,39.3,39.3,0,0,0-6.64-.59,35.58,35.58,0,0,0-12.53,2.18,31.85,31.85,0,0,0-10.46,6.36,32.63,32.63,0,0,0-7.72,10.59,29.16,29.16,0,0,0-2.73,12.26,32,32,0,0,0,3.77,15.42,27.79,27.79,0,0,0,10.49,11,35.46,35.46,0,0,0,4.1,2.13h-54V26.38Z"/><path class="cls-3" d="M50.86,48.25a8.2,8.2,0,1,1-8.2,8.19,8.21,8.21,0,0,1,8.2-8.19"/><path class="cls-3" d="M26.64,62.83c4.48-.31,8.88-.47,13.62-3.58-.83,3.69-7.59,7.38-13.62,7.61Z"/><path class="cls-3" d="M26.64,77.48c5.45-4,11.62-5,16-11.85.79,4-4.54,10.62-10.38,13a47.9,47.9,0,0,0-5.63,2.26Z"/><path class="cls-3" d="M39.41,100.23a16.77,16.77,0,0,1-.74-9.52c1.65-8.28,7.81-12.51,7.68-21.88,2.85,2.85,2.08,11.36-1.49,16.53-4.22,5.61-5.39,7.37-5.45,14.87"/><path class="cls-3" d="M65.52,97.63A16.86,16.86,0,0,1,59.79,90c-3-7.88-.13-14.75-5.26-22.59,3.93.89,7.85,8.47,7.61,14.75-.54,7-.59,9.11,3.38,15.48"/><path class="cls-3" d="M95,64.53a16.94,16.94,0,0,1-9.49,1.15c-8.34-1.3-12.83-7.27-22.19-6.74,2.73-3,11.26-2.57,16.58.79,5.79,4,7.6,5.05,15.1,4.8"/><path class="cls-3" d="M84.65,83.7a15.91,15.91,0,0,1-8.32-3.52c-6.22-5-7.08-12-15-16C65,63.1,71.78,67.44,74.55,72.68c2.87,6,3.83,7.7,10.1,11"/><path class="cls-4" d="M50.86,48.25a8.2,8.2,0,1,1-8.2,8.19,8.21,8.21,0,0,1,8.2-8.19m-24.22-15c5.61,5.21,6.87,12,14.75,16-3.85,1.2-11-3.41-14-9-.27-.57-.53-1.1-.78-1.6Zm0,17.62c3.83,1.88,7.6,3.73,13,3.42-2.17,2.35-8,2.59-13,.9Zm0,12c4.48-.31,8.87-.47,13.62-3.58-.83,3.69-7.59,7.38-13.62,7.61Zm0,14.65c5.44-4,11.62-5,16-11.85.8,4-4.54,10.62-10.38,13a48.37,48.37,0,0,0-5.62,2.26Zm12.77,22.75a16.77,16.77,0,0,1-.74-9.52c1.65-8.28,7.81-12.51,7.68-21.88,2.85,2.85,2.08,11.36-1.5,16.53C40.64,91,39.47,92.73,39.41,100.23Zm26.11-2.6A16.86,16.86,0,0,1,59.79,90c-3-7.88-.13-14.75-5.26-22.59,3.93.88,7.85,8.47,7.61,14.75C61.59,89.15,61.55,91.26,65.52,97.63ZM95,64.53a16.94,16.94,0,0,1-9.49,1.15c-8.35-1.31-12.83-7.27-22.19-6.74,2.73-3,11.26-2.57,16.58.79C85.73,63.69,87.54,64.78,95,64.53Zm.52-23.24a19.93,19.93,0,0,1-8.55,6c-8.74,3.31-16.2.57-25,6,1.09-4,9.54-8.17,16.42-8.11C86.14,45.5,88.46,45.48,95.56,41.29Zm-16-14.9a16.38,16.38,0,0,1-3.21,6.1C71.1,39.07,63.69,40,59.46,48.34c-1.2-3.84,3.42-11,9-14,5.36-2.57,7.51-3.69,10.19-8Zm-19,0c-2.07,6.35-6.38,10.79-5.93,18.8-3-2.73-2.56-11.26.79-16.58q.84-1.2,1.5-2.22Zm-16.52,0c1.19,6.31-.1,12.15,4.16,18.66-3.93-.88-7.85-8.47-7.61-14.75.12-1.5.21-2.77.25-3.91ZM84.65,83.7a15.91,15.91,0,0,1-8.32-3.52c-6.23-5-7.08-12-15-16C65,63.1,71.77,67.44,74.55,72.68,77.42,78.64,78.38,80.38,84.65,83.7Z"/><path class="cls-2" d="M194,163.21a7.84,7.84,0,0,0,.58,3.28,4.53,4.53,0,0,0,1.52,1.84,5.06,5.06,0,0,0,2.11.81,15.69,15.69,0,0,0,2.38.17h5a10.2,10.2,0,0,0,2.06-.2,5.08,5.08,0,0,0,1.81-.71,3.88,3.88,0,0,0,1.29-1.38,4.25,4.25,0,0,0,.5-2.15v-1.13h-4.7v.3a1.24,1.24,0,0,1-.21.74,1.91,1.91,0,0,1-.58.45,3.44,3.44,0,0,1-.84.24,7.54,7.54,0,0,1-1,.06h-2.47a3.46,3.46,0,0,1-1.86-.46,1.85,1.85,0,0,1-.72-1.71v-1.72a1.64,1.64,0,0,1,.73-1.51,4.3,4.3,0,0,1,2.25-.46h1.87a4.08,4.08,0,0,1,2.19.41,1.51,1.51,0,0,1,.61,1.38h4.7V160.3a3.62,3.62,0,0,0-1.54-3.24,7.65,7.65,0,0,0-4.25-1h-5.45a11.18,11.18,0,0,0-2.42.25,4,4,0,0,0-3.11,2.71,8.87,8.87,0,0,0-.43,3Zm-11.44-12.37h-4.85v3.78h4.85Zm0,5.4h-4.85v12.87h4.85Zm-30.4,12.87H157V162a1.83,1.83,0,0,1,.79-1.67,3.67,3.67,0,0,1,2-.51A4.21,4.21,0,0,1,161,160a1.65,1.65,0,0,1,.71.46,1.61,1.61,0,0,1,.34.76,6.41,6.41,0,0,1,.08,1.05h4.19c0-.23,0-.44,0-.61s0-.35,0-.52a5.47,5.47,0,0,0-1.13-3.87,5,5,0,0,0-3.79-1.21,10.23,10.23,0,0,0-1.59.13,5.3,5.3,0,0,0-1.38.43,3.6,3.6,0,0,0-1.1.82,3.29,3.29,0,0,0-.65,1.28h0v-2.45h-4.54ZM128,164.83a4.66,4.66,0,0,0,.46,2.2,3.61,3.61,0,0,0,1.21,1.38,4.83,4.83,0,0,0,1.77.7,10.28,10.28,0,0,0,2.11.2h1.93A8.68,8.68,0,0,0,138,169a4.5,4.5,0,0,0,1.7-.91,3.61,3.61,0,0,0,1-1.38,4.58,4.58,0,0,0,.31-1.7v-1.57H136.7v.86a1.53,1.53,0,0,1-.4,1.21,2.68,2.68,0,0,1-1.59.33,3.63,3.63,0,0,1-1.38-.21.92.92,0,0,1-.49-1v-4.95h7.52v-3.48h-7.52v-3H128v3h-2.42v3.48H128Zm-29.52-1.62a7.68,7.68,0,0,0,.58,3.28,4.53,4.53,0,0,0,1.52,1.84,5.06,5.06,0,0,0,2.11.81,15.6,15.6,0,0,0,2.38.17h5a10.2,10.2,0,0,0,2.06-.2,5.2,5.2,0,0,0,1.82-.71,4,4,0,0,0,1.28-1.38,4.25,4.25,0,0,0,.49-2.15v-1.13H111v.3a1.18,1.18,0,0,1-.22.74,1.69,1.69,0,0,1-.58.45,3.24,3.24,0,0,1-.83.24,7.54,7.54,0,0,1-1,.06H105.9a3.46,3.46,0,0,1-1.86-.46,1.85,1.85,0,0,1-.72-1.71v-1.72a1.64,1.64,0,0,1,.73-1.51,4.3,4.3,0,0,1,2.25-.46h1.87a4.08,4.08,0,0,1,2.19.41,1.51,1.51,0,0,1,.61,1.38h4.69V160.3a3.6,3.6,0,0,0-1.54-3.24,7.59,7.59,0,0,0-4.24-1h-5.45a11.18,11.18,0,0,0-2.42.25A4,4,0,0,0,98.9,159a8.87,8.87,0,0,0-.43,3Zm-22.32-2.33a3.28,3.28,0,0,1,.11-.93,1,1,0,0,1,.48-.56,2.87,2.87,0,0,1,1.06-.26c.47,0,1.09-.07,1.88-.07s1.29,0,1.75.07a3.16,3.16,0,0,1,1.08.26,1.13,1.13,0,0,1,.56.56,2.38,2.38,0,0,1,.15.93Zm-4.85,2.33a7.68,7.68,0,0,0,.58,3.28,4.53,4.53,0,0,0,1.52,1.84,5.07,5.07,0,0,0,2.1.81,15.82,15.82,0,0,0,2.39.17h3.63a17.62,17.62,0,0,0,2.48-.16,6.91,6.91,0,0,0,2-.59,3.51,3.51,0,0,0,1.38-1.2,3.65,3.65,0,0,0,.5-2v-.54H83.37a2.48,2.48,0,0,1-.06.54.9.9,0,0,1-.33.46,2.2,2.2,0,0,1-.82.33,7.6,7.6,0,0,1-1.54.13H79.13a5.35,5.35,0,0,1-2.25-.36,1.37,1.37,0,0,1-.73-1.38v-.79H87.91v-2.17a7.93,7.93,0,0,0-.41-2.75,3.72,3.72,0,0,0-1.29-1.71,5.4,5.4,0,0,0-2.26-.85,19.68,19.68,0,0,0-3.31-.25H77.26a11.18,11.18,0,0,0-2.42.25A4,4,0,0,0,71.73,159a8.62,8.62,0,0,0-.43,3ZM55,169.11h4.85V150.84H55ZM31.8,160.88a2.91,2.91,0,0,1,.12-.93,1,1,0,0,1,.47-.56,2.88,2.88,0,0,1,1.07-.26c.46,0,1.08-.07,1.88-.07s1.29,0,1.74.07a3.23,3.23,0,0,1,1.09.26,1.11,1.11,0,0,1,.55.56,2.38,2.38,0,0,1,.15.93ZM27,163.21a7.67,7.67,0,0,0,.59,3.28,4.51,4.51,0,0,0,1.51,1.84,5.16,5.16,0,0,0,2.11.81,15.73,15.73,0,0,0,2.39.17h3.63a17.72,17.72,0,0,0,2.48-.16,7,7,0,0,0,2-.59,3.41,3.41,0,0,0,1.37-1.2,3.56,3.56,0,0,0,.51-2v-.54H39a2.48,2.48,0,0,1-.06.54.8.8,0,0,1-.33.46,2.13,2.13,0,0,1-.82.33,7.52,7.52,0,0,1-1.54.13H34.78a5.35,5.35,0,0,1-2.25-.36,1.38,1.38,0,0,1-.73-1.38v-.79H43.57v-2.17a7.68,7.68,0,0,0-.42-2.75,3.72,3.72,0,0,0-1.29-1.71,5.34,5.34,0,0,0-2.26-.85,19.47,19.47,0,0,0-3.3-.25H32.91a11.25,11.25,0,0,0-2.42.25,4.26,4.26,0,0,0-1.88.89A4.1,4.1,0,0,0,27.39,159a8.6,8.6,0,0,0-.44,3Z"/></svg>